# xmcd CD database file
# Copyright (C) 1993-1996 Ti Kan
#
# Track frame offsets:
#  150
#  13663
#  28952
#  42545
#  56022
#  71173
#  87380
#  100506
#  115270
#  128201
#  146900
#  161190
#  177065
#  189825
#  204873
#  219821
#  232793
#  245074
#  258820
#  272801
#  287733
#  303154
#  318595
#
# Disc length: 4427 seconds
#
# Revision: 1
# Processed by: cddbd v1.5.2PL0 Copyright (c) Steve Scherf et al.
# Submitted via: Advanced CD Ripper Pro 2.0
#
DISCID=4b114917
DTITLE=cumbia - cumbias
DYEAR=2003
DGENRE=Musical
TTITLE0=desconocido - Pista  1
TTITLE1=desconocido - Pista  2
TTITLE2=desconocido - Pista  3
TTITLE3=desconocido - Pista  4
TTITLE4=desconocido - Pista  5
TTITLE5=desconocido - Pista  6
TTITLE6=desconocido - Pista  7
TTITLE7=desconocido - Pista  8
TTITLE8=desconocido - Pista  9
TTITLE9=desconocido - Pista 10
TTITLE10=desconocido - Pista 11
TTITLE11=desconocido - Pista 12
TTITLE12=desconocido - Pista 13
TTITLE13=desconocido - Pista 14
TTITLE14=desconocido - Pista 15
TTITLE15=desconocido - Pista 16
TTITLE16=desconocido - Pista 17
TTITLE17=desconocido - Pista 18
TTITLE18=desconocido - Pista 19
TTITLE19=desconocido - Pista 20
TTITLE20=desconocido - Pista 21
TTITLE21=desconocido - Pista 22
TTITLE22=desconocido - Pista 23
EXTD=
EXTT0=
EXTT1=
EXTT2=
EXTT3=
EXTT4=
EXTT5=
EXTT6=
EXTT7=
EXTT8=
EXTT9=
EXTT10=
EXTT11=
EXTT12=
EXTT13=
EXTT14=
EXTT15=
EXTT16=
EXTT17=
EXTT18=
EXTT19=
EXTT20=
EXTT21=
EXTT22=
PLAYORDER=
